HIERARCHY
ROOT Hips
{
	OFFSET 0.000000 0.000000 0.000000
	CHANNELS 6 Xposition Yposition Zposition Xrotation Yrotation Zrotation
	JOINT LeftUpLeg_virtual
	{
		OFFSET 0.000000 0.000000 0.000000
		CHANNELS 3 Xrotation Yrotation Zrotation
		JOINT LeftUpLeg
		{
			OFFSET 11.394100 -6.187798 -0.413800
			CHANNELS 3 Xrotation Yrotation Zrotation
			JOINT LeftLeg
			{
				OFFSET 0.430247 -32.302673 3.732800
				CHANNELS 3 Xrotation Yrotation Zrotation
				JOINT LeftFoot
				{
					OFFSET -0.430247 -48.264931 -6.423300
					CHANNELS 3 Xrotation Yrotation Zrotation
					JOINT LeftToeBase
					{
						OFFSET 4.230900 -16.068199 23.438400
						CHANNELS 3 Xrotation Yrotation Zrotation
						JOINT LeftToe_End
						{
							OFFSET 4.510700 0.695400 19.974600
							CHANNELS 3 Xrotation Yrotation Zrotation
							End Site
							{
								OFFSET 0 0 0
							}
						}
					}
				}
			}
		}
	}
	JOINT RightUpLeg_virtual
	{
		OFFSET 0.000000 0.000000 0.000000
		CHANNELS 3 Xrotation Yrotation Zrotation
		JOINT RightUpLeg
		{
			OFFSET -11.333700 -6.187798 -0.413800
			CHANNELS 3 Xrotation Yrotation Zrotation
			JOINT RightLeg
			{
				OFFSET -0.430392 -32.302628 3.733000
				CHANNELS 3 Xrotation Yrotation Zrotation
				JOINT RightFoot
				{
					OFFSET 0.430392 -48.264973 -6.423500
					CHANNELS 3 Xrotation Yrotation Zrotation
					JOINT RightToeBase
					{
						OFFSET -4.230900 -16.068199 23.438400
						CHANNELS 3 Xrotation Yrotation Zrotation
						JOINT RightToe_End
						{
							OFFSET -4.510700 0.695400 19.974600
							CHANNELS 3 Xrotation Yrotation Zrotation
							End Site
							{
								OFFSET 0 0 0
							}
						}
					}
				}
			}
		}
	}
	JOINT Spine_virtual
	{
		OFFSET 0.000000 0.000000 0.000000
		CHANNELS 3 Xrotation Yrotation Zrotation
		JOINT Spine
		{
			OFFSET -0.002400 12.777504 0.315300
			CHANNELS 3 Xrotation Yrotation Zrotation
			JOINT Spine1
			{
				OFFSET -0.002067 5.816869 0.032633
				CHANNELS 3 Xrotation Yrotation Zrotation
				JOINT Spine1_split
				{
					OFFSET -0.002067 5.816869 0.032633
					CHANNELS 3 Xrotation Yrotation Zrotation
					JOINT Spine2
					{
						OFFSET -0.002067 5.816869 0.032633
						CHANNELS 3 Xrotation Yrotation Zrotation
						JOINT Neck_virtual
						{
							OFFSET 0.000000 0.000000 0.000000
							CHANNELS 3 Xrotation Yrotation Zrotation
							JOINT Neck
							{
								OFFSET -0.003700 21.199493 -0.826900
								CHANNELS 3 Xrotation Yrotation Zrotation
								JOINT Head
								{
									OFFSET 0.000000 20.442200 4.834800
									CHANNELS 3 Xrotation Yrotation Zrotation
									JOINT HeadTop_End
									{
										OFFSET 0.000000 34.668396 4.968400
										CHANNELS 3 Xrotation Yrotation Zrotation
										End Site
										{
											OFFSET 0 0 0
										}
									}
								}
							}
						}
						JOINT LeftShoulder_virtual
						{
							OFFSET 0.000000 0.000000 0.000000
							CHANNELS 3 Xrotation Yrotation Zrotation
							JOINT LeftShoulder
							{
								OFFSET 3.288150 8.794197 -1.372250
								CHANNELS 3 Xrotation Yrotation Zrotation
								JOINT LeftShoulder_split
								{
									OFFSET 3.288150 8.794197 -1.372250
									CHANNELS 3 Xrotation Yrotation Zrotation
									JOINT LeftArm
									{
										OFFSET 11.953299 -2.279007 -0.146200
										CHANNELS 3 Xrotation Yrotation Zrotation
										JOINT LeftForeArm
										{
											OFFSET 18.448900 0.000000 0.000000
											CHANNELS 3 Xrotation Yrotation Zrotation
											JOINT LeftHand
											{
												OFFSET 29.527798 0.000000 0.000000
												CHANNELS 3 Xrotation Yrotation Zrotation
												End Site
												{
													OFFSET 0 0 0
												}
											}
										}
									}
								}
							}
						}
						JOINT RightShoulder_virtual
						{
							OFFSET 0.000000 0.000000 0.000000
							CHANNELS 3 Xrotation Yrotation Zrotation
							JOINT RightShoulder
							{
								OFFSET -3.249400 8.794197 -1.372250
								CHANNELS 3 Xrotation Yrotation Zrotation
								JOINT RightShoulder_split
								{
									OFFSET -3.249400 8.794197 -1.372250
									CHANNELS 3 Xrotation Yrotation Zrotation
									JOINT RightArm
									{
										OFFSET -11.953299 -2.279007 -0.146200
										CHANNELS 3 Xrotation Yrotation Zrotation
										JOINT RightForeArm
										{
											OFFSET -18.448900 0.000000 0.000000
											CHANNELS 3 Xrotation Yrotation Zrotation
											JOINT RightHand
											{
												OFFSET -29.527802 0.000000 0.000000
												CHANNELS 3 Xrotation Yrotation Zrotation
												End Site
												{
													OFFSET 0 0 0
												}
											}
										}
									}
								}
							}
						}
					}
				}
			}
		}
	}
}
MOTION
Frames: 4
Frame Time: 0.03333333
-0.026179 143.908447 0.505251 0.000000 0.000000 0.000000 -1.011772 1.597362 0.084395 -29.327388 8.451830 3.828944 42.004499 14.352521 1.460366 38.945971 2.074300 7.509593 -0.000001 0.000002 -0.000002 0.000000 0.000000 0.000000 -1.011772 1.597362 0.084395 -10.425088 -7.623248 -4.491952 26.460011 -19.500255 2.088584 47.513589 0.311593 0.840063 0.000001 -0.000004 0.000003 0.000000 0.000000 0.000000 -1.011772 1.597362 0.084395 -2.805113 -0.067906 0.234343 -5.611654 -0.102272 -0.620859 0.000000 0.000000 0.000000 0.000000 0.000000 0.000000 -5.611650 -0.102272 -0.620860 -27.780261 0.884574 -2.478856 -5.939968 -1.809258 2.604352 0.000000 0.000000 0.000000 -5.611650 -0.102272 -0.620860 7.248321 6.365627 32.385158 0.000000 0.000000 0.000000 -52.895321 -36.819893 5.857843 -23.466851 -23.506882 1.478706 0.000000 0.000000 0.000000 -5.611650 -0.102272 -0.620860 2.277538 -6.651283 -36.122572 0.000000 0.000000 0.000000 -64.303840 35.763881 7.685039 -24.527665 16.757147 0.686878 0.000000 0.000000 0.000000 
0.513534 144.026855 -0.343246 0.000000 0.000000 0.000000 -0.598732 0.921365 0.242488 -32.561212 8.284949 2.503360 45.821072 5.142586 0.947054 37.723063 1.851013 0.938763 -0.133679 -0.247616 0.149176 0.000000 0.000000 0.000000 -0.598732 0.921365 0.242488 -15.273319 -7.105781 -7.612930 39.961255 -14.965154 4.211192 38.534462 1.466990 7.404086 0.675282 2.489631 1.117268 0.000000 0.000000 0.000000 -0.598732 0.921365 0.242488 -2.641601 0.294121 0.181466 -5.279451 0.526127 -0.270102 0.000000 0.000000 0.000000 0.000000 0.000000 0.000000 -5.279449 0.526128 -0.270102 -29.410528 0.905853 -3.426295 -5.302065 -1.820671 3.677569 0.000000 0.000000 0.000000 -5.279449 0.526128 -0.270102 7.870906 7.117303 32.582270 0.000000 0.000000 0.000000 -57.915865 -34.418450 -0.704277 -26.183271 -29.980118 4.243760 0.000000 0.000000 0.000000 -5.279449 0.526128 -0.270102 2.490095 -6.094540 -35.392852 0.000000 0.000000 0.000000 -63.972385 33.630724 7.079514 -24.776953 22.588505 -0.847461 0.000000 0.000000 0.000000 
1.181135 144.318573 -1.904634 0.000000 0.000000 0.000000 0.193703 -1.267416 0.212060 -36.561268 8.044538 0.763679 50.891350 -6.657579 0.089074 33.662116 3.171606 -3.780088 -0.310187 -0.649677 0.109731 0.000000 0.000000 0.000000 0.193703 -1.267416 0.212060 -17.646448 -6.413686 -10.324055 49.341447 -4.631363 5.640156 27.821722 2.712522 19.003528 0.956144 1.256673 1.262974 0.000000 0.000000 0.000000 0.193703 -1.267416 0.212060 -2.456980 0.936910 0.265968 -4.910728 1.697762 0.223636 0.000000 0.000000 0.000000 0.000000 0.000000 0.000000 -4.910727 1.697762 0.223636 -29.004313 0.063108 -3.103741 -6.983479 -1.148914 4.443619 0.000000 0.000000 0.000000 -4.910727 1.697762 0.223636 9.233541 8.752141 32.902353 0.000000 0.000000 0.000000 -68.084739 -34.014147 -11.684616 -28.691903 -35.708478 10.607561 0.000000 0.000000 0.000000 -4.910727 1.697762 0.223636 2.685334 -5.556063 -34.635329 0.000000 0.000000 0.000000 -64.359602 32.111581 6.818227 -24.909990 27.211861 -2.862131 0.000000 0.000000 0.000000 
1.968651 144.923248 -4.157406 0.000000 0.000000 0.000000 1.372438 -5.970018 0.050019 -39.916223 7.708908 -1.081611 55.099983 -17.173597 -1.115816 26.422636 5.827210 -6.075478 -0.684137 -0.902897 0.033167 0.000000 0.000000 0.000000 1.372438 -5.970018 0.050019 -15.421314 -5.907364 -12.071415 50.532847 3.361094 5.862827 21.520772 2.413952 26.737117 -0.581484 0.057229 0.189461 0.000000 0.000000 0.000000 1.372438 -5.970018 0.050019 -2.260746 1.880633 0.442951 -4.534729 3.469904 0.884206 0.000000 0.000000 0.000000 0.000000 0.000000 0.000000 -4.534732 3.469906 0.884206 -27.111884 -1.184090 -2.102647 -9.713170 0.061400 5.251793 0.000000 0.000000 0.000000 -4.534732 3.469906 0.884206 11.294371 11.203107 33.051647 0.000000 0.000000 0.000000 -80.408744 -34.056129 -23.606488 -29.576171 -39.839370 20.033884 0.000000 0.000000 0.000000 -4.534732 3.469906 0.884206 2.906458 -4.949839 -33.790889 0.000000 0.000000 0.000000 -65.165414 31.264091 6.922779 -25.133891 30.857999 -4.805786 0.000000 0.000000 0.000000 
